<svg t="1715783375412" class="icon" viewBox="0 0 1024 1024" version="1.1" xmlns="http://www.w3.org/2000/svg" p-id="1300" width="200" height="200"><path d="M626.81 650.17m-183.01 0a183.01 183.01 0 1 0 366.02 0 183.01 183.01 0 1 0-366.02 0Z" fill="#FF9F9F" p-id="1301"></path><path d="M711.26 842.61H304.31c-48.97 0-88.81-39.84-88.81-88.81s39.84-88.81 88.81-88.81H668.8c13.81 0 25 11.19 25 25s-11.19 25-25 25H304.31c-21.4 0-38.81 17.41-38.81 38.81s17.41 38.81 38.81 38.81h406.96c36.99 0 67.08-30.09 67.08-67.08V300.82c0-36.99-30.09-67.08-67.08-67.08H345.43c-44.07 0-79.93 35.86-79.93 79.93V617c0 13.81-11.19 25-25 25s-25-11.19-25-25V313.67c0-71.64 58.28-129.93 129.93-129.93h365.83c64.56 0 117.08 52.52 117.08 117.08v424.71c0 64.56-52.52 117.08-117.08 117.08z" fill="#333333" p-id="1302"></path></svg>
