<svg t="1716466543632" class="icon" viewBox="0 0 1024 1024" version="1.1" xmlns="http://www.w3.org/2000/svg" p-id="4092" width="200" height="200"><path d="M787.04 144a80 80 0 0 1 79.616 72.032l57.6 576a80 80 0 0 1-79.616 87.968H179.36a80 80 0 0 1-79.616-87.968l57.6-576A80 80 0 0 1 236.96 144z m-14.496 96H251.424l-54.4 544h629.92l-54.4-544z m-95.552 78.56l28.48 14.56a32 32 0 0 1 13.952 43.072l-7.296 14.24a223.968 223.968 0 0 1-199.52 122.144 223.968 223.968 0 0 1-199.552-122.144l-7.296-14.24a32 32 0 0 1 13.92-43.072l28.48-14.56a32 32 0 0 1 43.072 13.92l7.296 14.272a128 128 0 0 0 114.08 69.824 128 128 0 0 0 114.048-69.824l7.296-14.272a32 32 0 0 1 43.04-13.92z" p-id="4093" data-spm-anchor-id="a313x.search_index.0.i7.441b3a81fKX9qd" class="selected"></path></svg>