<svg t="1716293104184" class="icon" viewBox="0 0 1024 1024" version="1.1" xmlns="http://www.w3.org/2000/svg" p-id="20682" width="200" height="200"><path d="M884.148148 358.020741a75.851852 75.851852 0 0 1 75.851852 75.851852v216.045037c0 104.732444-84.897185 189.62963-189.62963 189.629629h-448.474074a75.851852 75.851852 0 0 1-75.851852-75.851852v-23.779555h481.507556a132.835556 132.835556 0 0 0 132.816593-132.816593V358.020741h23.779555z" fill="#0CCA8A" fill-opacity=".5" p-id="20683"></path><path d="M718.127407 192a75.851852 75.851852 0 0 1 75.851852 75.851852v329.803852a75.851852 75.851852 0 0 1-75.851852 75.851852H155.83763a75.851852 75.851852 0 0 1-75.851852-75.851852V267.851852a75.851852 75.851852 0 0 1 75.851852-75.851852h562.251851z m-476.065185 115.237926a88.443259 88.443259 0 0 0-27.401481 3.640889 75.472593 75.472593 0 0 0-24.082963 11.946666c-7.073185 5.30963-12.781037 12.022519-17.104593 20.100741-4.304593 8.078222-6.46637 17.445926-6.46637 28.065185 0 9.955556 1.763556 18.583704 5.309629 25.903408 3.546074 7.300741 8.305778 13.615407 14.279112 18.925037s13.008593 9.898667 21.086814 13.786074c8.078222 3.868444 16.763259 7.471407 26.074074 10.789926 3.318519 1.099852 7.016296 2.654815 11.112297 4.645926 4.096 1.991111 7.86963 4.475259 11.301926 7.471407 3.413333 2.996148 6.352593 6.46637 8.798814 10.467556 2.427259 3.982222 3.640889 8.628148 3.640889 13.937778 0 5.537185-0.986074 10.467556-2.977185 14.791111a31.535407 31.535407 0 0 1-7.964444 10.789926 35.764148 35.764148 0 0 1-11.472593 6.637037 38.570667 38.570667 0 0 1-13.103407 2.313481c-5.30963 0-10.24-0.663704-14.791111-1.991111-4.532148-1.327407-8.855704-3.034074-12.951704-5.138963a100.920889 100.920889 0 0 1-11.605333-6.97837c-3.659852-2.541037-7.149037-4.93037-10.467556-7.130074a17.578667 17.578667 0 0 0-12.136296-2.844445c-4.304593 0.568889-8.00237 3.280593-11.112297 8.154074a15.701333 15.701333 0 0 0-2.825481 8.969482c-0.113778 3.527111 0.606815 7.186963 2.161778 10.941629 1.554963 3.77363 4.039111 7.49037 7.471407 11.13126 3.432296 3.659852 8.021333 6.921481 13.786074 9.803851 6.409481 3.318519 13.994667 6.352593 22.755556 9.121186 5.82163 1.85837 11.927704 2.977185 18.280296 3.413333l4.835556 0.170667 4.93037-0.094815c27.230815-0.891259 47.483259-8.021333 60.776296-21.428148 13.274074-13.387852 20.138667-31.04237 20.593778-52.944593a64.606815 64.606815 0 0 0-2.844444-21.921185 46.042074 46.042074 0 0 0-10.277926-17.256296 84.574815 84.574815 0 0 0-18.10963-14.298075c-7.300741-4.41837-15.928889-8.855704-25.903407-13.274074-3.982222-1.782519-8.457481-3.659852-13.444741-5.650963a86.812444 86.812444 0 0 1-14.279111-7.30074 47.919407 47.919407 0 0 1-11.45363-9.974519 20.252444 20.252444 0 0 1-4.645926-13.274074c0-3.109926 0.663704-6.257778 1.991111-9.481481a28.709926 28.709926 0 0 1 13.937778-14.942815c3.337481-1.649778 7.092148-2.465185 11.301926-2.465185 3.754667 0 7.471407 0.549926 11.131259 1.649777 3.640889 1.099852 7.073185 2.427259 10.277926 3.982223 3.223704 1.554963 6.257778 3.26163 9.140148 5.157926 2.88237 1.877333 5.423407 3.602963 7.642074 5.138963 1.536 1.327407 3.546074 2.218667 5.973334 2.654814 2.427259 0.436148 4.93037 0.379259 7.471407-0.170666 2.541037-0.549926 4.987259-1.536 7.300741-2.977186a18.204444 18.204444 0 0 0 5.82163-5.821629 16.896 16.896 0 0 0 1.15674-15.435852c-2.085926-5.423407-6.087111-10.467556-11.946666-15.113481a75.396741 75.396741 0 0 0-22.091852-11.624297 92.956444 92.956444 0 0 0-28.880593-4.968296z m442.311111 1.991111c-8.192 0-13.842963 1.877333-16.933926 5.632-2.465185 3.034074-3.982222 6.106074-4.456296 9.253926l-0.18963 2.37037v122.88c0 9.728-0.663704 18.375111-1.991111 25.903408-1.327407 7.509333-3.830519 13.880889-7.471407 19.07674a35.100444 35.100444 0 0 1-14.791111 11.946667c-6.181926 2.787556-14.032593 4.171852-23.570963 4.171852-9.728 0-17.768296-1.441185-24.082963-4.323556a35.612444 35.612444 0 0 1-14.923852-12.288 52.186074 52.186074 0 0 1-7.812741-19.247407 118.556444 118.556444 0 0 1-2.237629-19.77837l-0.075852-5.461334v-122.88a17.047704 17.047704 0 0 0-4.987259-11.946666c-3.318519-3.546074-8.855704-5.30963-16.611556-5.30963-7.736889 0-13.274074 1.877333-16.592593 5.632a18.792296 18.792296 0 0 0-4.797629 9.253926l-0.18963 2.37037v143.454815c0 13.520593 2.711704 25.182815 8.135111 35.043556 5.423407 9.860741 12.458667 18.033778 21.086815 24.576 8.628148 6.523259 18.432 11.396741 29.392593 14.601481a119.277037 119.277037 0 0 0 67.072 0 86.660741 86.660741 0 0 0 29.221926-14.772148c8.533333-6.637037 15.397926-14.885926 20.593777-24.746667 4.551111-8.609185 7.111111-18.545778 7.68-29.790814l0.113778-4.911408v-143.454815a17.047704 17.047704 0 0 0-4.968296-11.946666c-3.318519-3.546074-8.855704-5.30963-16.611556-5.30963z m-211.702518-0.18963c-4.077037 0.682667-8.533333 3.090963-13.330963 7.262815l-2.427259 2.218667-77.710223 74.05037v-66.085926a17.351111 17.351111 0 0 0-4.816592-11.946666c-3.223704-3.546074-8.685037-5.30963-16.440889-5.30963-7.736889 0-13.330963 1.877333-16.763259 5.632a18.318222 18.318222 0 0 0-5.006223 9.652148l-0.151703 1.972148v206.885926c0 3.546074 1.668741 6.750815 4.987259 9.633185 3.318519 2.88237 8.969481 4.323556 16.933926 4.323556 7.964444 0 13.50163-1.441185 16.611555-4.323556a13.653333 13.653333 0 0 0 4.456297-7.547259l0.189629-2.085926V450.37037l85.674667 89.656889c4.645926 4.873481 9.633185 7.319704 14.942815 7.319704s10.183111-2.654815 14.601481-7.964444a34.133333 34.133333 0 0 0 5.82163-9.481482 12.363852 12.363852 0 0 0 0.32237-7.964444 23.210667 23.210667 0 0 0-4.645926-7.964445 134.580148 134.580148 0 0 0-6.257777-6.883555l-2.541037-2.578963-85.674667-83.683556 82.678518-75.396741c4.873481-4.41837 7.964444-9.064296 9.291852-13.937777 1.34637-4.873481-0.18963-9.633185-4.626963-14.279112-5.973333-6.200889-11.358815-8.912593-16.118518-8.154074z"  p-id="20684"></path></svg>